<svg width="20" height="19" viewBox="0 0 20 19" fill="none" xmlns="http://www.w3.org/2000/svg">
<path fill-rule="evenodd" clip-rule="evenodd" d="M3.69817 5.00037L8.09677 0.785041C9.16046 -0.234336 10.8385 -0.234337 11.9022 0.78504L16.3008 5.00037H18.8465C19.4551 5.00037 19.9225 5.53935 19.8365 6.14179L18.3675 16.4246C18.1563 17.9026 16.8906 19.0004 15.3976 19.0004H4.60141C3.10846 19.0004 1.8427 17.9026 1.63156 16.4246L0.162582 6.14179C0.0765203 5.53935 0.543983 5.00037 1.15253 5.00037H3.69817ZM9.13462 1.86802C9.61812 1.40467 10.3809 1.40467 10.8644 1.86802L14.1329 5.00037H5.86609L9.13462 1.86802ZM1.72904 6.50037L3.11648 16.2125C3.22205 16.9515 3.85493 17.5004 4.60141 17.5004H15.3976C16.1441 17.5004 16.777 16.9515 16.8826 16.2125L18.27 6.50037H1.72904Z" fill="black"/>
</svg>
