<svg width="14" height="14" viewBox="0 0 14 14" fill="none" xmlns="http://www.w3.org/2000/svg">
<path fill-rule="evenodd" clip-rule="evenodd" d="M3.32426 4.08363L5.89011 1.62469C6.5106 1.03005 7.48948 1.03005 8.10997 1.62469L10.6758 4.08363H12.1608C12.5158 4.08363 12.7885 4.39804 12.7383 4.74946L11.8814 10.7478C11.7582 11.6099 11.0198 12.2503 10.1489 12.2503H3.85115C2.98026 12.2503 2.2419 11.6099 2.11874 10.7478L1.26183 4.74946C1.21163 4.39804 1.48432 4.08363 1.8393 4.08363H3.32426ZM6.49552 2.25643C6.77756 1.98614 7.22251 1.98614 7.50455 2.25643L9.4112 4.08363H4.58888L6.49552 2.25643ZM2.1756 4.95863L2.98494 10.624C3.04652 11.0551 3.4157 11.3753 3.85115 11.3753H10.1489C10.5844 11.3753 10.9536 11.0551 11.0152 10.624L11.8245 4.95863H2.1756Z" fill="white"/>
<path fill-rule="evenodd" clip-rule="evenodd" d="M4.66699 6.5625C4.90862 6.5625 5.10449 6.75838 5.10449 7V9.33333C5.10449 9.57496 4.90862 9.77083 4.66699 9.77083C4.42537 9.77083 4.22949 9.57496 4.22949 9.33333V7C4.22949 6.75838 4.42537 6.5625 4.66699 6.5625Z" fill="white"/>
<path fill-rule="evenodd" clip-rule="evenodd" d="M7 6.5625C7.24162 6.5625 7.4375 6.75838 7.4375 7V9.33333C7.4375 9.57496 7.24162 9.77083 7 9.77083C6.75838 9.77083 6.5625 9.57496 6.5625 9.33333V7C6.5625 6.75838 6.75838 6.5625 7 6.5625Z" fill="white"/>
<path fill-rule="evenodd" clip-rule="evenodd" d="M9.33301 6.5625C9.57463 6.5625 9.77051 6.75838 9.77051 7V9.33333C9.77051 9.57496 9.57463 9.77083 9.33301 9.77083C9.09138 9.77083 8.89551 9.57496 8.89551 9.33333V7C8.89551 6.75838 9.09138 6.5625 9.33301 6.5625Z" fill="white"/>
</svg>
