<svg width="50" height="54" viewBox="0 0 50 54" fill="none" xmlns="http://www.w3.org/2000/svg">
<rect width="50" height="54" rx="6" fill="#FAE2C8"/>
<path d="M29.5831 22.2613C29.2787 22.6086 29.2799 23.1703 29.5857 23.5159L32.3264 26.6129L15.7812 26.6129C15.3498 26.6129 15 27.0101 15 27.5C15 27.9899 15.3498 28.3871 15.7812 28.3871L32.3265 28.3871L29.5857 31.4841C29.2799 31.8297 29.2787 32.3914 29.5831 32.7387C29.8875 33.086 30.3821 33.0872 30.688 32.7417L34.7701 28.1288L34.7708 28.1279C35.0759 27.7823 35.0769 27.2188 34.7709 26.8721L34.7702 26.8712L30.688 22.2583C30.3822 21.9128 29.8875 21.914 29.5831 22.2613Z" fill="white"/>
</svg>
